# xmcd
#
# Track frame offsets: 
#        150
#        18957
#        36991
#        51067
#        67391
#        85897
#        102176
#        115341
#        133367
#        149733
#        166926
#        187163
#        199679
#
# Disc length: 2874 seconds
#
# Revision: 0
# Processed by: cddbd v1.5.2PL0 Copyright (c) Steve Scherf et al.
# Submitted via: ExactAudioCopy v0.95a5
#
DISCID=c80b380d
DTITLE=Lisa Taylor - LT
DYEAR=2009
DGENRE=R&B
TTITLE0=Butterflies
TTITLE1=This Journey
TTITLE2=For My Ladies
TTITLE3=Intoxicate You
TTITLE4=Just...Breathe
TTITLE5=Could You Be?
TTITLE6=I'm A Lucky Girl
TTITLE7=The Day
TTITLE8=Every Day Is A Battle
TTITLE9=I'd Rather Be Alone
TTITLE10=When Kisses Taste Like Tears
TTITLE11=No Game
TTITLE12=I'm Fine
EXTD=
EXTT0=
EXTT1=
EXTT2=
EXTT3=
EXTT4=
EXTT5=
EXTT6=
EXTT7=
EXTT8=
EXTT9=
EXTT10=
EXTT11=
EXTT12=
PLAYORDER=
